# xmcd
#
# Track frame offsets:
#	150
#	15478
#	29099
#	42616
#	60323
#	82575
#	93682
#	108937
#	121388
#	134340
#	147404
#	158915
#	173842
#
# Disc length: 2525 seconds
#
# Revision: 1
# Processed by: cddbd v1.5.2PL0 Copyright (c) Steve Scherf et al.
# Submitted via: audiograbber 1.83.01
#
DISCID=aa09db0d
DTITLE=The Black Keys - Rubber Factory
DYEAR=2004
DGENRE=
TTITLE0=when the lights go out
TTITLE1=10 a m automatic
TTITLE2=just couldn  t tie me down
TTITLE3=all hands against htis own
TTITLE4=the desperate man
TTITLE5=girl is on my mind
TTITLE6=the lengths
TTITLE7=grown so ugly
TTITLE8=stack shot billy
TTITLE9=act nice and gentle
TTITLE10=aeroplane blues
TTITLE11=keep me
TTITLE12=till I get my way
EXTD=
EXTT0=
EXTT1=
EXTT2=
EXTT3=
EXTT4=
EXTT5=
EXTT6=
EXTT7=
EXTT8=
EXTT9=
EXTT10=
EXTT11=
EXTT12=
PLAYORDER=
